<mxfile host="www.draw.io" modified="2020-01-12T17:50:49.579Z" agent="Mozilla/5.0 (Windows NT 10.0; Win64; x64) AppleWebKit/537.36 (KHTML, like Gecko) Chrome/79.0.3945.117 Safari/537.36" etag="5o7VniN_85LySGqqdckz" version="12.5.1" type="github">
  <diagram id="ciMFd6_CBrnLsRwzJrKy" name="Page-1">
    <mxGraphModel dx="868" dy="433" grid="1" gridSize="10" guides="1" tooltips="1" connect="1" arrows="1" fold="1" page="1" pageScale="1" pageWidth="1169" pageHeight="826" math="0" shadow="0">
      <root>
        <mxCell id="0"/>
        <mxCell id="1" parent="0"/>
        <mxCell id="z8vjfmseeXn0USBV1nfo-5" value="&lt;&lt;Usuario&gt;&gt;" style="swimlane;fontStyle=1;align=center;verticalAlign=top;childLayout=stackLayout;horizontal=1;startSize=26;horizontalStack=0;resizeParent=1;resizeParentMax=0;resizeLast=0;collapsible=1;marginBottom=0;" parent="1" vertex="1">
          <mxGeometry x="80" y="10" width="150" height="190" as="geometry"/>
        </mxCell>
        <mxCell id="z8vjfmseeXn0USBV1nfo-6" value="+ usuarioCliente: string" style="text;strokeColor=none;fillColor=none;align=left;verticalAlign=top;spacingLeft=4;spacingRight=4;overflow=hidden;rotatable=0;points=[[0,0.5],[1,0.5]];portConstraint=eastwest;" parent="z8vjfmseeXn0USBV1nfo-5" vertex="1">
          <mxGeometry y="26" width="150" height="26" as="geometry"/>
        </mxCell>
        <mxCell id="gzXGclxdogw32uuu3xl3-1" value="+ email: string" style="text;strokeColor=none;fillColor=none;align=left;verticalAlign=top;spacingLeft=4;spacingRight=4;overflow=hidden;rotatable=0;points=[[0,0.5],[1,0.5]];portConstraint=eastwest;" parent="z8vjfmseeXn0USBV1nfo-5" vertex="1">
          <mxGeometry y="52" width="150" height="26" as="geometry"/>
        </mxCell>
        <mxCell id="z8vjfmseeXn0USBV1nfo-9" value="+ contraseña: string" style="text;strokeColor=none;fillColor=none;align=left;verticalAlign=top;spacingLeft=4;spacingRight=4;overflow=hidden;rotatable=0;points=[[0,0.5],[1,0.5]];portConstraint=eastwest;" parent="z8vjfmseeXn0USBV1nfo-5" vertex="1">
          <mxGeometry y="78" width="150" height="26" as="geometry"/>
        </mxCell>
        <mxCell id="z8vjfmseeXn0USBV1nfo-11" value="+ loginStatus: boolean" style="text;strokeColor=none;fillColor=none;align=left;verticalAlign=top;spacingLeft=4;spacingRight=4;overflow=hidden;rotatable=0;points=[[0,0.5],[1,0.5]];portConstraint=eastwest;" parent="z8vjfmseeXn0USBV1nfo-5" vertex="1">
          <mxGeometry y="104" width="150" height="26" as="geometry"/>
        </mxCell>
        <mxCell id="z8vjfmseeXn0USBV1nfo-10" value="+ fechaRegistración: date" style="text;strokeColor=none;fillColor=none;align=left;verticalAlign=top;spacingLeft=4;spacingRight=4;overflow=hidden;rotatable=0;points=[[0,0.5],[1,0.5]];portConstraint=eastwest;" parent="z8vjfmseeXn0USBV1nfo-5" vertex="1">
          <mxGeometry y="130" width="150" height="26" as="geometry"/>
        </mxCell>
        <mxCell id="z8vjfmseeXn0USBV1nfo-7" value="" style="line;strokeWidth=1;fillColor=none;align=left;verticalAlign=middle;spacingTop=-1;spacingLeft=3;spacingRight=3;rotatable=0;labelPosition=right;points=[];portConstraint=eastwest;" parent="z8vjfmseeXn0USBV1nfo-5" vertex="1">
          <mxGeometry y="156" width="150" height="8" as="geometry"/>
        </mxCell>
        <mxCell id="z8vjfmseeXn0USBV1nfo-8" value="+ verificaLogueo()" style="text;strokeColor=none;fillColor=none;align=left;verticalAlign=top;spacingLeft=4;spacingRight=4;overflow=hidden;rotatable=0;points=[[0,0.5],[1,0.5]];portConstraint=eastwest;" parent="z8vjfmseeXn0USBV1nfo-5" vertex="1">
          <mxGeometry y="164" width="150" height="26" as="geometry"/>
        </mxCell>
        <mxCell id="z8vjfmseeXn0USBV1nfo-12" value="Cliente" style="swimlane;fontStyle=1;align=center;verticalAlign=top;childLayout=stackLayout;horizontal=1;startSize=26;horizontalStack=0;resizeParent=1;resizeParentMax=0;resizeLast=0;collapsible=1;marginBottom=0;" parent="1" vertex="1">
          <mxGeometry x="270" y="110" width="160" height="164" as="geometry"/>
        </mxCell>
        <mxCell id="z8vjfmseeXn0USBV1nfo-13" value="+ nombre: string" style="text;strokeColor=none;fillColor=none;align=left;verticalAlign=top;spacingLeft=4;spacingRight=4;overflow=hidden;rotatable=0;points=[[0,0.5],[1,0.5]];portConstraint=eastwest;" parent="z8vjfmseeXn0USBV1nfo-12" vertex="1">
          <mxGeometry y="26" width="160" height="26" as="geometry"/>
        </mxCell>
        <mxCell id="z8vjfmseeXn0USBV1nfo-16" value="+ direccion: string" style="text;strokeColor=none;fillColor=none;align=left;verticalAlign=top;spacingLeft=4;spacingRight=4;overflow=hidden;rotatable=0;points=[[0,0.5],[1,0.5]];portConstraint=eastwest;" parent="z8vjfmseeXn0USBV1nfo-12" vertex="1">
          <mxGeometry y="52" width="160" height="26" as="geometry"/>
        </mxCell>
        <mxCell id="z8vjfmseeXn0USBV1nfo-14" value="" style="line;strokeWidth=1;fillColor=none;align=left;verticalAlign=middle;spacingTop=-1;spacingLeft=3;spacingRight=3;rotatable=0;labelPosition=right;points=[];portConstraint=eastwest;" parent="z8vjfmseeXn0USBV1nfo-12" vertex="1">
          <mxGeometry y="78" width="160" height="8" as="geometry"/>
        </mxCell>
        <mxCell id="z8vjfmseeXn0USBV1nfo-15" value="+ registrar()" style="text;strokeColor=none;fillColor=none;align=left;verticalAlign=top;spacingLeft=4;spacingRight=4;overflow=hidden;rotatable=0;points=[[0,0.5],[1,0.5]];portConstraint=eastwest;" parent="z8vjfmseeXn0USBV1nfo-12" vertex="1">
          <mxGeometry y="86" width="160" height="26" as="geometry"/>
        </mxCell>
        <mxCell id="gzXGclxdogw32uuu3xl3-41" value="+ loguear()" style="text;strokeColor=none;fillColor=none;align=left;verticalAlign=top;spacingLeft=4;spacingRight=4;overflow=hidden;rotatable=0;points=[[0,0.5],[1,0.5]];portConstraint=eastwest;" parent="z8vjfmseeXn0USBV1nfo-12" vertex="1">
          <mxGeometry y="112" width="160" height="26" as="geometry"/>
        </mxCell>
        <mxCell id="z8vjfmseeXn0USBV1nfo-21" value="+ modificarCuenta()" style="text;strokeColor=none;fillColor=none;align=left;verticalAlign=top;spacingLeft=4;spacingRight=4;overflow=hidden;rotatable=0;points=[[0,0.5],[1,0.5]];portConstraint=eastwest;" parent="z8vjfmseeXn0USBV1nfo-12" vertex="1">
          <mxGeometry y="138" width="160" height="26" as="geometry"/>
        </mxCell>
        <mxCell id="z8vjfmseeXn0USBV1nfo-22" value="Administrador" style="swimlane;fontStyle=1;align=center;verticalAlign=top;childLayout=stackLayout;horizontal=1;startSize=26;horizontalStack=0;resizeParent=1;resizeParentMax=0;resizeLast=0;collapsible=1;marginBottom=0;" parent="1" vertex="1">
          <mxGeometry x="270" y="10" width="160" height="86" as="geometry"/>
        </mxCell>
        <mxCell id="z8vjfmseeXn0USBV1nfo-23" value="+ accesoMayor: string" style="text;strokeColor=none;fillColor=none;align=left;verticalAlign=top;spacingLeft=4;spacingRight=4;overflow=hidden;rotatable=0;points=[[0,0.5],[1,0.5]];portConstraint=eastwest;" parent="z8vjfmseeXn0USBV1nfo-22" vertex="1">
          <mxGeometry y="26" width="160" height="26" as="geometry"/>
        </mxCell>
        <mxCell id="z8vjfmseeXn0USBV1nfo-24" value="" style="line;strokeWidth=1;fillColor=none;align=left;verticalAlign=middle;spacingTop=-1;spacingLeft=3;spacingRight=3;rotatable=0;labelPosition=right;points=[];portConstraint=eastwest;" parent="z8vjfmseeXn0USBV1nfo-22" vertex="1">
          <mxGeometry y="52" width="160" height="8" as="geometry"/>
        </mxCell>
        <mxCell id="z8vjfmseeXn0USBV1nfo-25" value="+ modificarCatalogo()" style="text;strokeColor=none;fillColor=none;align=left;verticalAlign=top;spacingLeft=4;spacingRight=4;overflow=hidden;rotatable=0;points=[[0,0.5],[1,0.5]];portConstraint=eastwest;" parent="z8vjfmseeXn0USBV1nfo-22" vertex="1">
          <mxGeometry y="60" width="160" height="26" as="geometry"/>
        </mxCell>
        <mxCell id="z8vjfmseeXn0USBV1nfo-27" value="Pedido" style="swimlane;fontStyle=1;align=center;verticalAlign=top;childLayout=stackLayout;horizontal=1;startSize=26;horizontalStack=0;resizeParent=1;resizeParentMax=0;resizeLast=0;collapsible=1;marginBottom=0;" parent="1" vertex="1">
          <mxGeometry x="360" y="330" width="160" height="216" as="geometry"/>
        </mxCell>
        <mxCell id="z8vjfmseeXn0USBV1nfo-28" value="+ numeroPedido: integer" style="text;strokeColor=none;fillColor=none;align=left;verticalAlign=top;spacingLeft=4;spacingRight=4;overflow=hidden;rotatable=0;points=[[0,0.5],[1,0.5]];portConstraint=eastwest;" parent="z8vjfmseeXn0USBV1nfo-27" vertex="1">
          <mxGeometry y="26" width="160" height="26" as="geometry"/>
        </mxCell>
        <mxCell id="z8vjfmseeXn0USBV1nfo-31" value="+ fechaCreacion: date" style="text;strokeColor=none;fillColor=none;align=left;verticalAlign=top;spacingLeft=4;spacingRight=4;overflow=hidden;rotatable=0;points=[[0,0.5],[1,0.5]];portConstraint=eastwest;" parent="z8vjfmseeXn0USBV1nfo-27" vertex="1">
          <mxGeometry y="52" width="160" height="26" as="geometry"/>
        </mxCell>
        <mxCell id="z8vjfmseeXn0USBV1nfo-32" value="+ fechaDespacho: date" style="text;strokeColor=none;fillColor=none;align=left;verticalAlign=top;spacingLeft=4;spacingRight=4;overflow=hidden;rotatable=0;points=[[0,0.5],[1,0.5]];portConstraint=eastwest;" parent="z8vjfmseeXn0USBV1nfo-27" vertex="1">
          <mxGeometry y="78" width="160" height="26" as="geometry"/>
        </mxCell>
        <mxCell id="z8vjfmseeXn0USBV1nfo-33" value="+ nombreCliente: string" style="text;strokeColor=none;fillColor=none;align=left;verticalAlign=top;spacingLeft=4;spacingRight=4;overflow=hidden;rotatable=0;points=[[0,0.5],[1,0.5]];portConstraint=eastwest;" parent="z8vjfmseeXn0USBV1nfo-27" vertex="1">
          <mxGeometry y="104" width="160" height="26" as="geometry"/>
        </mxCell>
        <mxCell id="z8vjfmseeXn0USBV1nfo-34" value="+ estadoCompraEnvio: string" style="text;strokeColor=none;fillColor=none;align=left;verticalAlign=top;spacingLeft=4;spacingRight=4;overflow=hidden;rotatable=0;points=[[0,0.5],[1,0.5]];portConstraint=eastwest;" parent="z8vjfmseeXn0USBV1nfo-27" vertex="1">
          <mxGeometry y="130" width="160" height="26" as="geometry"/>
        </mxCell>
        <mxCell id="z8vjfmseeXn0USBV1nfo-35" value="+ numeroGuiaEnvio: string" style="text;strokeColor=none;fillColor=none;align=left;verticalAlign=top;spacingLeft=4;spacingRight=4;overflow=hidden;rotatable=0;points=[[0,0.5],[1,0.5]];portConstraint=eastwest;" parent="z8vjfmseeXn0USBV1nfo-27" vertex="1">
          <mxGeometry y="156" width="160" height="26" as="geometry"/>
        </mxCell>
        <mxCell id="z8vjfmseeXn0USBV1nfo-29" value="" style="line;strokeWidth=1;fillColor=none;align=left;verticalAlign=middle;spacingTop=-1;spacingLeft=3;spacingRight=3;rotatable=0;labelPosition=right;points=[];portConstraint=eastwest;" parent="z8vjfmseeXn0USBV1nfo-27" vertex="1">
          <mxGeometry y="182" width="160" height="8" as="geometry"/>
        </mxCell>
        <mxCell id="z8vjfmseeXn0USBV1nfo-30" value="+ generarPedido()" style="text;strokeColor=none;fillColor=none;align=left;verticalAlign=top;spacingLeft=4;spacingRight=4;overflow=hidden;rotatable=0;points=[[0,0.5],[1,0.5]];portConstraint=eastwest;" parent="z8vjfmseeXn0USBV1nfo-27" vertex="1">
          <mxGeometry y="190" width="160" height="26" as="geometry"/>
        </mxCell>
        <mxCell id="z8vjfmseeXn0USBV1nfo-36" value="Información del Envío" style="swimlane;fontStyle=1;align=center;verticalAlign=top;childLayout=stackLayout;horizontal=1;startSize=26;horizontalStack=0;resizeParent=1;resizeParentMax=0;resizeLast=0;collapsible=1;marginBottom=0;" parent="1" vertex="1">
          <mxGeometry x="560" y="300" width="160" height="138" as="geometry"/>
        </mxCell>
        <mxCell id="z8vjfmseeXn0USBV1nfo-40" value="+ formaEnvio: string" style="text;strokeColor=none;fillColor=none;align=left;verticalAlign=top;spacingLeft=4;spacingRight=4;overflow=hidden;rotatable=0;points=[[0,0.5],[1,0.5]];portConstraint=eastwest;" parent="z8vjfmseeXn0USBV1nfo-36" vertex="1">
          <mxGeometry y="26" width="160" height="26" as="geometry"/>
        </mxCell>
        <mxCell id="z8vjfmseeXn0USBV1nfo-41" value="+ costoEnvio: doble" style="text;strokeColor=none;fillColor=none;align=left;verticalAlign=top;spacingLeft=4;spacingRight=4;overflow=hidden;rotatable=0;points=[[0,0.5],[1,0.5]];portConstraint=eastwest;" parent="z8vjfmseeXn0USBV1nfo-36" vertex="1">
          <mxGeometry y="52" width="160" height="26" as="geometry"/>
        </mxCell>
        <mxCell id="z8vjfmseeXn0USBV1nfo-38" value="" style="line;strokeWidth=1;fillColor=none;align=left;verticalAlign=middle;spacingTop=-1;spacingLeft=3;spacingRight=3;rotatable=0;labelPosition=right;points=[];portConstraint=eastwest;" parent="z8vjfmseeXn0USBV1nfo-36" vertex="1">
          <mxGeometry y="78" width="160" height="8" as="geometry"/>
        </mxCell>
        <mxCell id="z8vjfmseeXn0USBV1nfo-39" value="+ calcularValorEnvio()" style="text;strokeColor=none;fillColor=none;align=left;verticalAlign=top;spacingLeft=4;spacingRight=4;overflow=hidden;rotatable=0;points=[[0,0.5],[1,0.5]];portConstraint=eastwest;" parent="z8vjfmseeXn0USBV1nfo-36" vertex="1">
          <mxGeometry y="86" width="160" height="26" as="geometry"/>
        </mxCell>
        <mxCell id="gzXGclxdogw32uuu3xl3-47" value="+ informarNumeroGuia()" style="text;strokeColor=none;fillColor=none;align=left;verticalAlign=top;spacingLeft=4;spacingRight=4;overflow=hidden;rotatable=0;points=[[0,0.5],[1,0.5]];portConstraint=eastwest;" parent="z8vjfmseeXn0USBV1nfo-36" vertex="1">
          <mxGeometry y="112" width="160" height="26" as="geometry"/>
        </mxCell>
        <mxCell id="z8vjfmseeXn0USBV1nfo-43" value="Facturación" style="swimlane;fontStyle=1;align=center;verticalAlign=top;childLayout=stackLayout;horizontal=1;startSize=26;horizontalStack=0;resizeParent=1;resizeParentMax=0;resizeLast=0;collapsible=1;marginBottom=0;" parent="1" vertex="1">
          <mxGeometry x="560" y="460" width="160" height="138" as="geometry"/>
        </mxCell>
        <mxCell id="z8vjfmseeXn0USBV1nfo-47" value="+ articuloPedido: string" style="text;strokeColor=none;fillColor=none;align=left;verticalAlign=top;spacingLeft=4;spacingRight=4;overflow=hidden;rotatable=0;points=[[0,0.5],[1,0.5]];portConstraint=eastwest;" parent="z8vjfmseeXn0USBV1nfo-43" vertex="1">
          <mxGeometry y="26" width="160" height="26" as="geometry"/>
        </mxCell>
        <mxCell id="z8vjfmseeXn0USBV1nfo-48" value="+ cantidadPedido: doble" style="text;strokeColor=none;fillColor=none;align=left;verticalAlign=top;spacingLeft=4;spacingRight=4;overflow=hidden;rotatable=0;points=[[0,0.5],[1,0.5]];portConstraint=eastwest;" parent="z8vjfmseeXn0USBV1nfo-43" vertex="1">
          <mxGeometry y="52" width="160" height="26" as="geometry"/>
        </mxCell>
        <mxCell id="z8vjfmseeXn0USBV1nfo-49" value="+ costos: integer" style="text;strokeColor=none;fillColor=none;align=left;verticalAlign=top;spacingLeft=4;spacingRight=4;overflow=hidden;rotatable=0;points=[[0,0.5],[1,0.5]];portConstraint=eastwest;" parent="z8vjfmseeXn0USBV1nfo-43" vertex="1">
          <mxGeometry y="78" width="160" height="26" as="geometry"/>
        </mxCell>
        <mxCell id="z8vjfmseeXn0USBV1nfo-45" value="" style="line;strokeWidth=1;fillColor=none;align=left;verticalAlign=middle;spacingTop=-1;spacingLeft=3;spacingRight=3;rotatable=0;labelPosition=right;points=[];portConstraint=eastwest;" parent="z8vjfmseeXn0USBV1nfo-43" vertex="1">
          <mxGeometry y="104" width="160" height="8" as="geometry"/>
        </mxCell>
        <mxCell id="z8vjfmseeXn0USBV1nfo-46" value="+ calcularValor()" style="text;strokeColor=none;fillColor=none;align=left;verticalAlign=top;spacingLeft=4;spacingRight=4;overflow=hidden;rotatable=0;points=[[0,0.5],[1,0.5]];portConstraint=eastwest;" parent="z8vjfmseeXn0USBV1nfo-43" vertex="1">
          <mxGeometry y="112" width="160" height="26" as="geometry"/>
        </mxCell>
        <mxCell id="z8vjfmseeXn0USBV1nfo-51" value="Carrito de Compras" style="swimlane;fontStyle=1;align=center;verticalAlign=top;childLayout=stackLayout;horizontal=1;startSize=26;horizontalStack=0;resizeParent=1;resizeParentMax=0;resizeLast=0;collapsible=1;marginBottom=0;" parent="1" vertex="1">
          <mxGeometry x="170" y="330" width="160" height="216" as="geometry"/>
        </mxCell>
        <mxCell id="z8vjfmseeXn0USBV1nfo-52" value="+ artículoPedido: string" style="text;strokeColor=none;fillColor=none;align=left;verticalAlign=top;spacingLeft=4;spacingRight=4;overflow=hidden;rotatable=0;points=[[0,0.5],[1,0.5]];portConstraint=eastwest;" parent="z8vjfmseeXn0USBV1nfo-51" vertex="1">
          <mxGeometry y="26" width="160" height="26" as="geometry"/>
        </mxCell>
        <mxCell id="z8vjfmseeXn0USBV1nfo-62" value="+ artículoPedido: string" style="text;strokeColor=none;fillColor=none;align=left;verticalAlign=top;spacingLeft=4;spacingRight=4;overflow=hidden;rotatable=0;points=[[0,0.5],[1,0.5]];portConstraint=eastwest;" parent="z8vjfmseeXn0USBV1nfo-51" vertex="1">
          <mxGeometry y="52" width="160" height="26" as="geometry"/>
        </mxCell>
        <mxCell id="z8vjfmseeXn0USBV1nfo-63" value="+ cantidadPedido: integer" style="text;strokeColor=none;fillColor=none;align=left;verticalAlign=top;spacingLeft=4;spacingRight=4;overflow=hidden;rotatable=0;points=[[0,0.5],[1,0.5]];portConstraint=eastwest;" parent="z8vjfmseeXn0USBV1nfo-51" vertex="1">
          <mxGeometry y="78" width="160" height="26" as="geometry"/>
        </mxCell>
        <mxCell id="z8vjfmseeXn0USBV1nfo-64" value="+ fechaAgregado: date " style="text;strokeColor=none;fillColor=none;align=left;verticalAlign=top;spacingLeft=4;spacingRight=4;overflow=hidden;rotatable=0;points=[[0,0.5],[1,0.5]];portConstraint=eastwest;" parent="z8vjfmseeXn0USBV1nfo-51" vertex="1">
          <mxGeometry y="104" width="160" height="26" as="geometry"/>
        </mxCell>
        <mxCell id="z8vjfmseeXn0USBV1nfo-53" value="" style="line;strokeWidth=1;fillColor=none;align=left;verticalAlign=middle;spacingTop=-1;spacingLeft=3;spacingRight=3;rotatable=0;labelPosition=right;points=[];portConstraint=eastwest;" parent="z8vjfmseeXn0USBV1nfo-51" vertex="1">
          <mxGeometry y="130" width="160" height="8" as="geometry"/>
        </mxCell>
        <mxCell id="z8vjfmseeXn0USBV1nfo-54" value="+ agregarAlCarrito()" style="text;strokeColor=none;fillColor=none;align=left;verticalAlign=top;spacingLeft=4;spacingRight=4;overflow=hidden;rotatable=0;points=[[0,0.5],[1,0.5]];portConstraint=eastwest;" parent="z8vjfmseeXn0USBV1nfo-51" vertex="1">
          <mxGeometry y="138" width="160" height="26" as="geometry"/>
        </mxCell>
        <mxCell id="z8vjfmseeXn0USBV1nfo-66" value="+ modificarCarrito()" style="text;strokeColor=none;fillColor=none;align=left;verticalAlign=top;spacingLeft=4;spacingRight=4;overflow=hidden;rotatable=0;points=[[0,0.5],[1,0.5]];portConstraint=eastwest;" parent="z8vjfmseeXn0USBV1nfo-51" vertex="1">
          <mxGeometry y="164" width="160" height="26" as="geometry"/>
        </mxCell>
        <mxCell id="z8vjfmseeXn0USBV1nfo-65" value="+ chekOut()" style="text;strokeColor=none;fillColor=none;align=left;verticalAlign=top;spacingLeft=4;spacingRight=4;overflow=hidden;rotatable=0;points=[[0,0.5],[1,0.5]];portConstraint=eastwest;" parent="z8vjfmseeXn0USBV1nfo-51" vertex="1">
          <mxGeometry y="190" width="160" height="26" as="geometry"/>
        </mxCell>
        <mxCell id="gzXGclxdogw32uuu3xl3-5" value="ABM direcciones" style="swimlane;fontStyle=1;align=center;verticalAlign=top;childLayout=stackLayout;horizontal=1;startSize=26;horizontalStack=0;resizeParent=1;resizeParentMax=0;resizeLast=0;collapsible=1;marginBottom=0;" parent="1" vertex="1">
          <mxGeometry x="680" y="10" width="130" height="216" as="geometry"/>
        </mxCell>
        <mxCell id="gzXGclxdogw32uuu3xl3-6" value="+ calle: string" style="text;strokeColor=none;fillColor=none;align=left;verticalAlign=top;spacingLeft=4;spacingRight=4;overflow=hidden;rotatable=0;points=[[0,0.5],[1,0.5]];portConstraint=eastwest;" parent="gzXGclxdogw32uuu3xl3-5" vertex="1">
          <mxGeometry y="26" width="130" height="26" as="geometry"/>
        </mxCell>
        <mxCell id="gzXGclxdogw32uuu3xl3-9" value="+ numero: integer" style="text;strokeColor=none;fillColor=none;align=left;verticalAlign=top;spacingLeft=4;spacingRight=4;overflow=hidden;rotatable=0;points=[[0,0.5],[1,0.5]];portConstraint=eastwest;" parent="gzXGclxdogw32uuu3xl3-5" vertex="1">
          <mxGeometry y="52" width="130" height="26" as="geometry"/>
        </mxCell>
        <mxCell id="gzXGclxdogw32uuu3xl3-10" value="+ codigoPostal: string" style="text;strokeColor=none;fillColor=none;align=left;verticalAlign=top;spacingLeft=4;spacingRight=4;overflow=hidden;rotatable=0;points=[[0,0.5],[1,0.5]];portConstraint=eastwest;" parent="gzXGclxdogw32uuu3xl3-5" vertex="1">
          <mxGeometry y="78" width="130" height="26" as="geometry"/>
        </mxCell>
        <mxCell id="gzXGclxdogw32uuu3xl3-11" value="+ localidad: string" style="text;strokeColor=none;fillColor=none;align=left;verticalAlign=top;spacingLeft=4;spacingRight=4;overflow=hidden;rotatable=0;points=[[0,0.5],[1,0.5]];portConstraint=eastwest;" parent="gzXGclxdogw32uuu3xl3-5" vertex="1">
          <mxGeometry y="104" width="130" height="26" as="geometry"/>
        </mxCell>
        <mxCell id="gzXGclxdogw32uuu3xl3-12" value="+ provincia: string" style="text;strokeColor=none;fillColor=none;align=left;verticalAlign=top;spacingLeft=4;spacingRight=4;overflow=hidden;rotatable=0;points=[[0,0.5],[1,0.5]];portConstraint=eastwest;" parent="gzXGclxdogw32uuu3xl3-5" vertex="1">
          <mxGeometry y="130" width="130" height="26" as="geometry"/>
        </mxCell>
        <mxCell id="gzXGclxdogw32uuu3xl3-13" value="+ pais: string" style="text;strokeColor=none;fillColor=none;align=left;verticalAlign=top;spacingLeft=4;spacingRight=4;overflow=hidden;rotatable=0;points=[[0,0.5],[1,0.5]];portConstraint=eastwest;" parent="gzXGclxdogw32uuu3xl3-5" vertex="1">
          <mxGeometry y="156" width="130" height="26" as="geometry"/>
        </mxCell>
        <mxCell id="gzXGclxdogw32uuu3xl3-7" value="" style="line;strokeWidth=1;fillColor=none;align=left;verticalAlign=middle;spacingTop=-1;spacingLeft=3;spacingRight=3;rotatable=0;labelPosition=right;points=[];portConstraint=eastwest;" parent="gzXGclxdogw32uuu3xl3-5" vertex="1">
          <mxGeometry y="182" width="130" height="8" as="geometry"/>
        </mxCell>
        <mxCell id="gzXGclxdogw32uuu3xl3-8" value="+ getDomicilio ()" style="text;strokeColor=none;fillColor=none;align=left;verticalAlign=top;spacingLeft=4;spacingRight=4;overflow=hidden;rotatable=0;points=[[0,0.5],[1,0.5]];portConstraint=eastwest;" parent="gzXGclxdogw32uuu3xl3-5" vertex="1">
          <mxGeometry y="190" width="130" height="26" as="geometry"/>
        </mxCell>
        <mxCell id="gzXGclxdogw32uuu3xl3-14" value="tiene" style="endArrow=block;endFill=1;edgeStyle=orthogonalEdgeStyle;align=left;verticalAlign=top;labelBorderColor=none;fontColor=#000000;strokeColor=#000000;rounded=0;" parent="1" source="z8vjfmseeXn0USBV1nfo-12" target="gzXGclxdogw32uuu3xl3-5" edge="1">
          <mxGeometry x="-0.5802" y="10" relative="1" as="geometry">
            <mxPoint x="90" y="260" as="sourcePoint"/>
            <mxPoint x="250" y="260" as="targetPoint"/>
            <Array as="points">
              <mxPoint x="460" y="195"/>
              <mxPoint x="460" y="40"/>
            </Array>
            <mxPoint as="offset"/>
          </mxGeometry>
        </mxCell>
        <mxCell id="gzXGclxdogw32uuu3xl3-15" value="1" style="resizable=0;align=left;verticalAlign=bottom;labelBackgroundColor=#ffffff;fontSize=10;noLabel=1;fontColor=none;" parent="gzXGclxdogw32uuu3xl3-14" connectable="0" vertex="1">
          <mxGeometry x="-1" relative="1" as="geometry"/>
        </mxCell>
        <mxCell id="gzXGclxdogw32uuu3xl3-16" value="Extends" style="endArrow=block;endSize=8;endFill=0;strokeColor=#000000;fontColor=none;rounded=0;shadow=0;horizontal=0;verticalAlign=top;labelBackgroundColor=none;noLabel=1;startSize=1;" parent="1" source="z8vjfmseeXn0USBV1nfo-12" target="z8vjfmseeXn0USBV1nfo-5" edge="1">
          <mxGeometry x="1" y="164" width="160" relative="1" as="geometry">
            <mxPoint x="240" y="340" as="sourcePoint"/>
            <mxPoint x="240" y="330" as="targetPoint"/>
            <mxPoint x="-2" y="-1" as="offset"/>
          </mxGeometry>
        </mxCell>
        <mxCell id="gzXGclxdogw32uuu3xl3-18" value="Extends" style="endArrow=block;endSize=8;endFill=0;strokeColor=#000000;fontColor=none;shadow=0;horizontal=0;verticalAlign=top;labelBackgroundColor=none;noLabel=1;startSize=1;jumpStyle=none;rounded=0;" parent="1" source="z8vjfmseeXn0USBV1nfo-22" target="z8vjfmseeXn0USBV1nfo-5" edge="1">
          <mxGeometry x="1" y="164" width="160" relative="1" as="geometry">
            <mxPoint x="266" y="221.57894736842104" as="sourcePoint"/>
            <mxPoint x="236" y="206.42105263157896" as="targetPoint"/>
            <mxPoint x="-2" y="-1" as="offset"/>
          </mxGeometry>
        </mxCell>
        <mxCell id="gzXGclxdogw32uuu3xl3-20" value="0 ...*" style="endArrow=blockThin;html=1;endSize=8;startArrow=diamondThin;startSize=8;startFill=0;edgeStyle=orthogonalEdgeStyle;align=left;verticalAlign=bottom;shadow=0;labelBackgroundColor=none;strokeColor=#000000;fontColor=#000000;rounded=0;endFill=1;" parent="1" source="z8vjfmseeXn0USBV1nfo-12" target="z8vjfmseeXn0USBV1nfo-27" edge="1">
          <mxGeometry x="-0.5385" y="20" relative="1" as="geometry">
            <mxPoint x="90" y="316" as="sourcePoint"/>
            <mxPoint x="250" y="316" as="targetPoint"/>
            <Array as="points">
              <mxPoint x="350" y="310"/>
              <mxPoint x="440" y="310"/>
            </Array>
            <mxPoint as="offset"/>
          </mxGeometry>
        </mxCell>
        <mxCell id="gzXGclxdogw32uuu3xl3-21" value="ABM artículos" style="swimlane;fontStyle=1;align=center;verticalAlign=top;childLayout=stackLayout;horizontal=1;startSize=26;horizontalStack=0;resizeParent=1;resizeParentMax=0;resizeLast=0;collapsible=1;marginBottom=0;fontColor=#000000;html=0;" parent="1" vertex="1">
          <mxGeometry x="480" y="60" width="160" height="190" as="geometry"/>
        </mxCell>
        <mxCell id="gzXGclxdogw32uuu3xl3-22" value="+ idArticulo: integer" style="text;strokeColor=none;fillColor=none;align=left;verticalAlign=top;spacingLeft=4;spacingRight=4;overflow=hidden;rotatable=0;points=[[0,0.5],[1,0.5]];portConstraint=eastwest;" parent="gzXGclxdogw32uuu3xl3-21" vertex="1">
          <mxGeometry y="26" width="160" height="26" as="geometry"/>
        </mxCell>
        <mxCell id="gzXGclxdogw32uuu3xl3-32" value="+ detalleArticulo: string" style="text;strokeColor=none;fillColor=none;align=left;verticalAlign=top;spacingLeft=4;spacingRight=4;overflow=hidden;rotatable=0;points=[[0,0.5],[1,0.5]];portConstraint=eastwest;" parent="gzXGclxdogw32uuu3xl3-21" vertex="1">
          <mxGeometry y="52" width="160" height="26" as="geometry"/>
        </mxCell>
        <mxCell id="gzXGclxdogw32uuu3xl3-38" value="+ colorArticulo: string" style="text;strokeColor=none;fillColor=none;align=left;verticalAlign=top;spacingLeft=4;spacingRight=4;overflow=hidden;rotatable=0;points=[[0,0.5],[1,0.5]];portConstraint=eastwest;" parent="gzXGclxdogw32uuu3xl3-21" vertex="1">
          <mxGeometry y="78" width="160" height="26" as="geometry"/>
        </mxCell>
        <mxCell id="gzXGclxdogw32uuu3xl3-37" value="+ sexoArticulo: string" style="text;strokeColor=none;fillColor=none;align=left;verticalAlign=top;spacingLeft=4;spacingRight=4;overflow=hidden;rotatable=0;points=[[0,0.5],[1,0.5]];portConstraint=eastwest;" parent="gzXGclxdogw32uuu3xl3-21" vertex="1">
          <mxGeometry y="104" width="160" height="26" as="geometry"/>
        </mxCell>
        <mxCell id="gzXGclxdogw32uuu3xl3-35" value="+ precioArticulo: doble" style="text;strokeColor=none;fillColor=none;align=left;verticalAlign=top;spacingLeft=4;spacingRight=4;overflow=hidden;rotatable=0;points=[[0,0.5],[1,0.5]];portConstraint=eastwest;" parent="gzXGclxdogw32uuu3xl3-21" vertex="1">
          <mxGeometry y="130" width="160" height="26" as="geometry"/>
        </mxCell>
        <mxCell id="gzXGclxdogw32uuu3xl3-23" value="" style="line;strokeWidth=1;fillColor=none;align=left;verticalAlign=middle;spacingTop=-1;spacingLeft=3;spacingRight=3;rotatable=0;labelPosition=right;points=[];portConstraint=eastwest;" parent="gzXGclxdogw32uuu3xl3-21" vertex="1">
          <mxGeometry y="156" width="160" height="8" as="geometry"/>
        </mxCell>
        <mxCell id="gzXGclxdogw32uuu3xl3-24" value="+ getArticulo()" style="text;strokeColor=none;fillColor=none;align=left;verticalAlign=top;spacingLeft=4;spacingRight=4;overflow=hidden;rotatable=0;points=[[0,0.5],[1,0.5]];portConstraint=eastwest;" parent="gzXGclxdogw32uuu3xl3-21" vertex="1">
          <mxGeometry y="164" width="160" height="26" as="geometry"/>
        </mxCell>
        <mxCell id="gzXGclxdogw32uuu3xl3-39" value="Usa" style="endArrow=blockThin;endSize=10;dashed=1;html=1;shadow=0;labelBackgroundColor=none;strokeColor=#000000;fontColor=#000000;endFill=1;" parent="1" source="z8vjfmseeXn0USBV1nfo-27" target="gzXGclxdogw32uuu3xl3-21" edge="1">
          <mxGeometry width="160" relative="1" as="geometry">
            <mxPoint x="420" y="610" as="sourcePoint"/>
            <mxPoint x="190" y="690" as="targetPoint"/>
          </mxGeometry>
        </mxCell>
        <mxCell id="gzXGclxdogw32uuu3xl3-40" value="0...*" style="endArrow=blockThin;html=1;endSize=8;startArrow=diamondThin;startSize=8;startFill=0;edgeStyle=orthogonalEdgeStyle;align=left;verticalAlign=bottom;shadow=0;labelBackgroundColor=none;strokeColor=#000000;fontColor=#000000;endFill=1;rounded=0;" parent="1" source="z8vjfmseeXn0USBV1nfo-12" target="z8vjfmseeXn0USBV1nfo-51" edge="1">
          <mxGeometry x="-0.2389" y="-10" relative="1" as="geometry">
            <mxPoint x="220" y="270" as="sourcePoint"/>
            <mxPoint x="110" y="240" as="targetPoint"/>
            <Array as="points">
              <mxPoint x="350" y="310"/>
              <mxPoint x="190" y="310"/>
            </Array>
            <mxPoint as="offset"/>
          </mxGeometry>
        </mxCell>
        <mxCell id="gzXGclxdogw32uuu3xl3-46" value="Usa" style="endArrow=blockThin;endSize=10;dashed=1;html=1;shadow=0;labelBackgroundColor=none;strokeColor=#000000;fontColor=#000000;endFill=1;rounded=0;" parent="1" source="z8vjfmseeXn0USBV1nfo-36" target="gzXGclxdogw32uuu3xl3-5" edge="1">
          <mxGeometry width="160" relative="1" as="geometry">
            <mxPoint x="630" y="229" as="sourcePoint"/>
            <mxPoint x="510" y="590" as="targetPoint"/>
          </mxGeometry>
        </mxCell>
        <mxCell id="gzXGclxdogw32uuu3xl3-49" value="Usa" style="endArrow=blockThin;endSize=10;dashed=1;html=1;shadow=0;labelBackgroundColor=none;strokeColor=#000000;fontColor=#000000;endFill=1;" parent="1" source="z8vjfmseeXn0USBV1nfo-22" target="gzXGclxdogw32uuu3xl3-21" edge="1">
          <mxGeometry width="160" relative="1" as="geometry">
            <mxPoint x="495.79505300353344" y="340" as="sourcePoint"/>
            <mxPoint x="529.7173144876324" y="260" as="targetPoint"/>
          </mxGeometry>
        </mxCell>
        <mxCell id="gzXGclxdogw32uuu3xl3-50" value="Extends" style="endArrow=block;endSize=8;endFill=0;strokeColor=#000000;fontColor=none;shadow=0;horizontal=0;verticalAlign=top;labelBackgroundColor=none;noLabel=1;startSize=1;jumpStyle=none;rounded=0;" parent="1" source="z8vjfmseeXn0USBV1nfo-36" target="z8vjfmseeXn0USBV1nfo-27" edge="1">
          <mxGeometry x="1" y="164" width="160" relative="1" as="geometry">
            <mxPoint x="800" y="330.00333333333333" as="sourcePoint"/>
            <mxPoint x="760" y="340.66999999999996" as="targetPoint"/>
            <mxPoint x="-2" y="-1" as="offset"/>
          </mxGeometry>
        </mxCell>
        <mxCell id="gzXGclxdogw32uuu3xl3-51" value="Extends" style="endArrow=block;endSize=8;endFill=0;strokeColor=#000000;fontColor=none;rounded=0;shadow=0;horizontal=0;verticalAlign=top;labelBackgroundColor=none;noLabel=1;startSize=1;" parent="1" source="z8vjfmseeXn0USBV1nfo-43" target="z8vjfmseeXn0USBV1nfo-27" edge="1">
          <mxGeometry x="1" y="164" width="160" relative="1" as="geometry">
            <mxPoint x="280" y="219.30769230769238" as="sourcePoint"/>
            <mxPoint x="240" y="201.46153846153845" as="targetPoint"/>
            <mxPoint x="-2" y="-1" as="offset"/>
          </mxGeometry>
        </mxCell>
      </root>
    </mxGraphModel>
  </diagram>
</mxfile>
